<svg id="Layer_1" data-name="Layer 1" xmlns="http://www.w3.org/2000/svg" viewBox="0 0 679.66 102.56"><defs><style>.cls-1{fill:#93f;}.cls-2{stroke:#000;stroke-miterlimit:10;stroke-width:0.54px;}</style></defs><g id="man"><g id="Group_2" data-name="Group 2"><g id="Group_1" data-name="Group 1"><circle id="Ellipse_1" data-name="Ellipse 1" class="cls-1" cx="22.63" cy="15.36" r="15.09"/></g></g><g id="Group_4" data-name="Group 4"><g id="Group_3" data-name="Group 3"><path id="Path_1" data-name="Path 1" class="cls-1" d="M68.57,91l-3.43-27.8c-.39-3.14-3.62-5.51-7.5-5.51H34.28c-3.89,0-7.12,2.37-7.5,5.5L23.34,91a2.72,2.72,0,0,0,1,2.36,4.2,4.2,0,0,0,2.79,1h4.13l3.09,25.06c.39,3.13,3.62,5.5,7.52,5.5h8.26c3.89,0,7.12-2.37,7.51-5.5l3.09-25.06h4.13a4.22,4.22,0,0,0,2.8-1A2.69,2.69,0,0,0,68.57,91Z" transform="translate(-23.33 -22.64)"/></g></g></g><g id="man-2"><g id="Group_2-2" data-name="Group 2-2"><g id="Group_1-2" data-name="Group 1-2"><circle id="Ellipse_1-2" data-name="Ellipse 1-2" class="cls-1" cx="93.09" cy="15.36" r="15.09"/></g></g><g id="Group_4-2" data-name="Group 4-2"><g id="Group_3-2" data-name="Group 3-2"><path id="Path_1-2" data-name="Path 1-2" class="cls-1" d="M139,91l-3.43-27.8c-.39-3.14-3.62-5.51-7.5-5.51H104.74c-3.89,0-7.12,2.37-7.5,5.5L93.8,91a2.72,2.72,0,0,0,1,2.36,4.2,4.2,0,0,0,2.79,1h4.13l3.09,25.06c.39,3.13,3.62,5.5,7.52,5.5h8.26c3.89,0,7.12-2.37,7.51-5.5l3.09-25.06h4.13a4.22,4.22,0,0,0,2.8-1A2.69,2.69,0,0,0,139,91Z" transform="translate(-23.33 -22.64)"/></g></g></g><g id="man-3"><g id="Group_2-3" data-name="Group 2-3"><g id="Group_1-3" data-name="Group 1-3"><circle id="Ellipse_1-3" data-name="Ellipse 1-3" class="cls-1" cx="163.55" cy="15.36" r="15.09"/></g></g><g id="Group_4-3" data-name="Group 4-3"><g id="Group_3-3" data-name="Group 3-3"><path id="Path_1-3" data-name="Path 1-3" class="cls-1" d="M209.49,91l-3.43-27.8c-.39-3.14-3.62-5.51-7.5-5.51H175.2c-3.89,0-7.12,2.37-7.51,5.5L164.26,91a2.72,2.72,0,0,0,1,2.36,4.2,4.2,0,0,0,2.79,1h4.13l3.09,25.06c.39,3.13,3.62,5.5,7.52,5.5H191c3.89,0,7.12-2.37,7.51-5.5l3.09-25.06h4.13a4.24,4.24,0,0,0,2.8-1A2.69,2.69,0,0,0,209.49,91Z" transform="translate(-23.33 -22.64)"/></g></g></g><g id="man-5"><g id="Group_2-5" data-name="Group 2-5"><g id="Group_1-5" data-name="Group 1-5"><circle id="Ellipse_1-5" data-name="Ellipse 1-5" class="cls-2" cx="304.46" cy="15.36" r="15.09"/></g></g><g id="Group_4-5" data-name="Group 4-5"><g id="Group_3-5" data-name="Group 3-5"><path id="Path_1-5" data-name="Path 1-5" class="cls-2" d="M350.41,91,347,63.21c-.38-3.14-3.61-5.51-7.5-5.51H316.12c-3.89,0-7.12,2.37-7.51,5.5L305.18,91a2.72,2.72,0,0,0,1,2.36,4.2,4.2,0,0,0,2.79,1h4.13l3.09,25.06c.38,3.13,3.62,5.5,7.51,5.5h8.27c3.89,0,7.12-2.37,7.5-5.5l3.1-25.06h4.12a4.2,4.2,0,0,0,2.8-1A2.67,2.67,0,0,0,350.41,91Z" transform="translate(-23.33 -22.64)"/></g></g></g><g id="man-6"><g id="Group_2-6" data-name="Group 2-6"><g id="Group_1-6" data-name="Group 1-6"><circle id="Ellipse_1-6" data-name="Ellipse 1-6" class="cls-2" cx="374.92" cy="15.36" r="15.09"/></g></g><g id="Group_4-6" data-name="Group 4-6"><g id="Group_3-6" data-name="Group 3-6"><path id="Path_1-6" data-name="Path 1-6" class="cls-2" d="M420.87,91l-3.44-27.8c-.38-3.14-3.61-5.51-7.5-5.51H386.58c-3.89,0-7.12,2.37-7.51,5.5L375.64,91a2.72,2.72,0,0,0,1,2.36,4.2,4.2,0,0,0,2.79,1h4.13l3.09,25.06c.38,3.13,3.62,5.5,7.51,5.5h8.26c3.9,0,7.13-2.37,7.51-5.5L413,94.37h4.12a4.2,4.2,0,0,0,2.8-1A2.67,2.67,0,0,0,420.87,91Z" transform="translate(-23.33 -22.64)"/></g></g></g><g id="man-7"><g id="Group_2-7" data-name="Group 2-7"><g id="Group_1-7" data-name="Group 1-7"><circle id="Ellipse_1-7" data-name="Ellipse 1-7" class="cls-2" cx="445.38" cy="15.36" r="15.09"/></g></g><g id="Group_4-7" data-name="Group 4-7"><g id="Group_3-7" data-name="Group 3-7"><path id="Path_1-7" data-name="Path 1-7" class="cls-2" d="M491.33,91l-3.44-27.8c-.38-3.14-3.61-5.51-7.5-5.51H457c-3.89,0-7.12,2.37-7.51,5.5L446.1,91a2.72,2.72,0,0,0,1,2.36,4.18,4.18,0,0,0,2.79,1H454l3.1,25.06c.38,3.13,3.62,5.5,7.51,5.5h8.26c3.9,0,7.13-2.37,7.51-5.5l3.1-25.06h4.12a4.2,4.2,0,0,0,2.8-1A2.7,2.7,0,0,0,491.33,91Z" transform="translate(-23.33 -22.64)"/></g></g></g><g id="man-8"><g id="Group_2-8" data-name="Group 2-8"><g id="Group_1-8" data-name="Group 1-8"><circle id="Ellipse_1-8" data-name="Ellipse 1-8" class="cls-2" cx="515.84" cy="15.36" r="15.09"/></g></g><g id="Group_4-8" data-name="Group 4-8"><g id="Group_3-8" data-name="Group 3-8"><path id="Path_1-8" data-name="Path 1-8" class="cls-2" d="M561.78,91l-3.43-27.8c-.38-3.14-3.61-5.51-7.5-5.51H527.5c-3.9,0-7.13,2.37-7.51,5.5L516.56,91a2.72,2.72,0,0,0,1,2.36,4.22,4.22,0,0,0,2.8,1h4.12l3.1,25.06c.38,3.13,3.62,5.5,7.51,5.5h8.26c3.9,0,7.13-2.37,7.51-5.5l3.09-25.06H558a4.2,4.2,0,0,0,2.8-1A2.67,2.67,0,0,0,561.78,91Z" transform="translate(-23.33 -22.64)"/></g></g></g><g id="man-9"><g id="Group_2-9" data-name="Group 2-9"><g id="Group_1-9" data-name="Group 1-9"><circle id="Ellipse_1-9" data-name="Ellipse 1-9" class="cls-2" cx="586.3" cy="15.36" r="15.09"/></g></g><g id="Group_4-9" data-name="Group 4-9"><g id="Group_3-9" data-name="Group 3-9"><path id="Path_1-9" data-name="Path 1-9" class="cls-2" d="M632.24,91l-3.43-27.8c-.38-3.14-3.61-5.51-7.5-5.51H598c-3.9,0-7.13,2.37-7.51,5.5L587,91a2.69,2.69,0,0,0,1,2.36,4.2,4.2,0,0,0,2.8,1h4.12L598,119.43c.39,3.13,3.63,5.5,7.52,5.5h8.26c3.9,0,7.12-2.37,7.51-5.5l3.09-25.06h4.13a4.22,4.22,0,0,0,2.8-1A2.69,2.69,0,0,0,632.24,91Z" transform="translate(-23.33 -22.64)"/></g></g></g><g id="man-10"><g id="Group_2-10" data-name="Group 2-10"><g id="Group_1-10" data-name="Group 1-10"><circle id="Ellipse_1-10" data-name="Ellipse 1-10" class="cls-2" cx="656.76" cy="15.36" r="15.09"/></g></g><g id="Group_4-10" data-name="Group 4-10"><g id="Group_3-10" data-name="Group 3-10"><path id="Path_1-10" data-name="Path 1-10" class="cls-2" d="M702.7,91l-3.43-27.8c-.39-3.14-3.61-5.51-7.5-5.51H668.42c-3.9,0-7.13,2.37-7.51,5.5L657.47,91a2.72,2.72,0,0,0,1,2.36,4.2,4.2,0,0,0,2.79,1h4.13l3.09,25.06c.39,3.13,3.63,5.5,7.52,5.5h8.26c3.89,0,7.12-2.37,7.51-5.5l3.09-25.06H699a4.22,4.22,0,0,0,2.8-1A2.69,2.69,0,0,0,702.7,91Z" transform="translate(-23.33 -22.64)"/></g></g></g><g id="man-4"><g id="Group_2-4" data-name="Group 2-4"><g id="Group_1-4" data-name="Group 1-4"><circle id="Ellipse_1-4" data-name="Ellipse 1-4" class="cls-1" cx="234" cy="15.36" r="15.09"/></g></g><g id="Group_4-4" data-name="Group 4-4"><g id="Group_3-4" data-name="Group 3-4"><path id="Path_1-4" data-name="Path 1-4" class="cls-1" d="M280,91l-3.43-27.8c-.39-3.14-3.62-5.51-7.5-5.51H245.66c-3.89,0-7.12,2.37-7.51,5.5L234.72,91a2.72,2.72,0,0,0,1,2.36,4.2,4.2,0,0,0,2.79,1h4.13l3.09,25.06c.38,3.13,3.62,5.5,7.51,5.5h8.27c3.89,0,7.12-2.37,7.5-5.5l3.1-25.06h4.13a4.24,4.24,0,0,0,2.8-1A2.69,2.69,0,0,0,280,91Z" transform="translate(-23.33 -22.64)"/></g></g></g><g id="Group_2-4-2" data-name="Group 2-4"><g id="Group_1-4-2" data-name="Group 1-4"><circle id="Ellipse_1-4-2" data-name="Ellipse 1-4" class="cls-1" cx="234" cy="15.36" r="15.09"/></g></g><path class="cls-2" d="M276.52,63.21c-.39-3.14-3.62-5.51-7.5-5.51H245.66a8.92,8.92,0,0,0-1.16.08v52l1.19,9.64c.38,3.13,3.62,5.5,7.51,5.5h8.27c3.89,0,7.12-2.37,7.5-5.5l3.1-25.06h4.13a4.24,4.24,0,0,0,2.8-1A2.69,2.69,0,0,0,280,91Z" transform="translate(-23.33 -22.64)"/><path class="cls-2" d="M257.33,22.91a15.07,15.07,0,0,0-12.83,7.18V45.91a15.08,15.08,0,1,0,12.83-23Z" transform="translate(-23.33 -22.64)"/></svg>