<svg id="Layer_1" data-name="Layer 1" xmlns="http://www.w3.org/2000/svg" viewBox="0 0 679.39 102.02"><defs><style>.cls-1{fill:#bcbcbc;}</style></defs><g id="man"><g id="Group_2" data-name="Group 2"><g id="Group_1" data-name="Group 1"><circle id="Ellipse_1" data-name="Ellipse 1" class="cls-1" cx="22.63" cy="15.09" r="15.09"/></g></g><g id="Group_4" data-name="Group 4"><g id="Group_3" data-name="Group 3"><path id="Path_1" data-name="Path 1" class="cls-1" d="M68.57,92l-3.43-27.8c-.39-3.14-3.62-5.51-7.5-5.51H34.28c-3.89,0-7.12,2.37-7.5,5.5L23.34,92a2.72,2.72,0,0,0,1,2.36,4.2,4.2,0,0,0,2.79,1h4.13l3.09,25.06c.39,3.13,3.62,5.5,7.52,5.5h8.26c3.89,0,7.12-2.37,7.51-5.5l3.09-25.06h4.13a4.22,4.22,0,0,0,2.8-1A2.69,2.69,0,0,0,68.57,92Z" transform="translate(-23.33 -23.91)"/></g></g></g><g id="man-2"><g id="Group_2-2" data-name="Group 2-2"><g id="Group_1-2" data-name="Group 1-2"><circle id="Ellipse_1-2" data-name="Ellipse 1-2" class="cls-1" cx="93.09" cy="15.09" r="15.09"/></g></g><g id="Group_4-2" data-name="Group 4-2"><g id="Group_3-2" data-name="Group 3-2"><path id="Path_1-2" data-name="Path 1-2" class="cls-1" d="M139,92l-3.43-27.8c-.39-3.14-3.62-5.51-7.5-5.51H104.74c-3.89,0-7.12,2.37-7.5,5.5L93.8,92a2.72,2.72,0,0,0,1,2.36,4.2,4.2,0,0,0,2.79,1h4.13l3.09,25.06c.39,3.13,3.62,5.5,7.52,5.5h8.26c3.89,0,7.12-2.37,7.51-5.5l3.09-25.06h4.13a4.22,4.22,0,0,0,2.8-1A2.69,2.69,0,0,0,139,92Z" transform="translate(-23.33 -23.91)"/></g></g></g><g id="man-3"><g id="Group_2-3" data-name="Group 2-3"><g id="Group_1-3" data-name="Group 1-3"><circle id="Ellipse_1-3" data-name="Ellipse 1-3" class="cls-1" cx="163.55" cy="15.09" r="15.09"/></g></g><g id="Group_4-3" data-name="Group 4-3"><g id="Group_3-3" data-name="Group 3-3"><path id="Path_1-3" data-name="Path 1-3" class="cls-1" d="M209.49,92l-3.43-27.8c-.39-3.14-3.62-5.51-7.5-5.51H175.2c-3.89,0-7.12,2.37-7.51,5.5L164.26,92a2.72,2.72,0,0,0,1,2.36,4.2,4.2,0,0,0,2.79,1h4.13l3.09,25.06c.39,3.13,3.62,5.5,7.52,5.5H191c3.89,0,7.12-2.37,7.51-5.5l3.09-25.06h4.13a4.24,4.24,0,0,0,2.8-1A2.69,2.69,0,0,0,209.49,92Z" transform="translate(-23.33 -23.91)"/></g></g></g><g id="man-4"><g id="Group_2-4" data-name="Group 2-4"><g id="Group_1-4" data-name="Group 1-4"><circle id="Ellipse_1-4" data-name="Ellipse 1-4" class="cls-1" cx="234" cy="15.09" r="15.09"/></g></g><g id="Group_4-4" data-name="Group 4-4"><g id="Group_3-4" data-name="Group 3-4"><path id="Path_1-4" data-name="Path 1-4" class="cls-1" d="M280,92l-3.43-27.8c-.39-3.14-3.62-5.51-7.5-5.51H245.66c-3.89,0-7.12,2.37-7.51,5.5L234.72,92a2.72,2.72,0,0,0,1,2.36,4.2,4.2,0,0,0,2.79,1h4.13l3.09,25.06c.38,3.13,3.62,5.5,7.51,5.5h8.27c3.89,0,7.12-2.37,7.5-5.5l3.1-25.06h4.13a4.24,4.24,0,0,0,2.8-1A2.69,2.69,0,0,0,280,92Z" transform="translate(-23.33 -23.91)"/></g></g></g><g id="man-5"><g id="Group_2-5" data-name="Group 2-5"><g id="Group_1-5" data-name="Group 1-5"><circle id="Ellipse_1-5" data-name="Ellipse 1-5" class="cls-1" cx="304.46" cy="15.09" r="15.09"/></g></g><g id="Group_4-5" data-name="Group 4-5"><g id="Group_3-5" data-name="Group 3-5"><path id="Path_1-5" data-name="Path 1-5" class="cls-1" d="M350.41,92,347,64.21c-.38-3.14-3.61-5.51-7.5-5.51H316.12c-3.89,0-7.12,2.37-7.51,5.5L305.18,92a2.72,2.72,0,0,0,1,2.36,4.2,4.2,0,0,0,2.79,1h4.13l3.09,25.06c.38,3.13,3.62,5.5,7.51,5.5h8.27c3.89,0,7.12-2.37,7.5-5.5l3.1-25.06h4.12a4.2,4.2,0,0,0,2.8-1A2.67,2.67,0,0,0,350.41,92Z" transform="translate(-23.33 -23.91)"/></g></g></g><g id="man-6"><g id="Group_2-6" data-name="Group 2-6"><g id="Group_1-6" data-name="Group 1-6"><circle id="Ellipse_1-6" data-name="Ellipse 1-6" class="cls-1" cx="374.92" cy="15.09" r="15.09"/></g></g><g id="Group_4-6" data-name="Group 4-6"><g id="Group_3-6" data-name="Group 3-6"><path id="Path_1-6" data-name="Path 1-6" class="cls-1" d="M420.87,92l-3.44-27.8c-.38-3.14-3.61-5.51-7.5-5.51H386.58c-3.89,0-7.12,2.37-7.51,5.5L375.64,92a2.72,2.72,0,0,0,1,2.36,4.2,4.2,0,0,0,2.79,1h4.13l3.09,25.06c.38,3.13,3.62,5.5,7.51,5.5h8.26c3.9,0,7.13-2.37,7.51-5.5L413,95.37h4.12a4.2,4.2,0,0,0,2.8-1A2.67,2.67,0,0,0,420.87,92Z" transform="translate(-23.33 -23.91)"/></g></g></g><g id="man-7"><g id="Group_2-7" data-name="Group 2-7"><g id="Group_1-7" data-name="Group 1-7"><circle id="Ellipse_1-7" data-name="Ellipse 1-7" class="cls-1" cx="445.38" cy="15.09" r="15.09"/></g></g><g id="Group_4-7" data-name="Group 4-7"><g id="Group_3-7" data-name="Group 3-7"><path id="Path_1-7" data-name="Path 1-7" class="cls-1" d="M491.33,92l-3.44-27.8c-.38-3.14-3.61-5.51-7.5-5.51H457c-3.89,0-7.12,2.37-7.51,5.5L446.1,92a2.72,2.72,0,0,0,1,2.36,4.18,4.18,0,0,0,2.79,1H454l3.1,25.06c.38,3.13,3.62,5.5,7.51,5.5h8.26c3.9,0,7.13-2.37,7.51-5.5l3.1-25.06h4.12a4.2,4.2,0,0,0,2.8-1A2.7,2.7,0,0,0,491.33,92Z" transform="translate(-23.33 -23.91)"/></g></g></g><g id="man-8"><g id="Group_2-8" data-name="Group 2-8"><g id="Group_1-8" data-name="Group 1-8"><circle id="Ellipse_1-8" data-name="Ellipse 1-8" class="cls-1" cx="515.84" cy="15.09" r="15.09"/></g></g><g id="Group_4-8" data-name="Group 4-8"><g id="Group_3-8" data-name="Group 3-8"><path id="Path_1-8" data-name="Path 1-8" class="cls-1" d="M561.78,92l-3.43-27.8c-.38-3.14-3.61-5.51-7.5-5.51H527.5c-3.9,0-7.13,2.37-7.51,5.5L516.56,92a2.72,2.72,0,0,0,1,2.36,4.22,4.22,0,0,0,2.8,1h4.12l3.1,25.06c.38,3.13,3.62,5.5,7.51,5.5h8.26c3.9,0,7.13-2.37,7.51-5.5l3.09-25.06H558a4.2,4.2,0,0,0,2.8-1A2.67,2.67,0,0,0,561.78,92Z" transform="translate(-23.33 -23.91)"/></g></g></g><g id="man-9"><g id="Group_2-9" data-name="Group 2-9"><g id="Group_1-9" data-name="Group 1-9"><circle id="Ellipse_1-9" data-name="Ellipse 1-9" class="cls-1" cx="586.3" cy="15.09" r="15.09"/></g></g><g id="Group_4-9" data-name="Group 4-9"><g id="Group_3-9" data-name="Group 3-9"><path id="Path_1-9" data-name="Path 1-9" class="cls-1" d="M632.24,92l-3.43-27.8c-.38-3.14-3.61-5.51-7.5-5.51H598c-3.9,0-7.13,2.37-7.51,5.5L587,92a2.69,2.69,0,0,0,1,2.36,4.2,4.2,0,0,0,2.8,1h4.12L598,120.43c.39,3.13,3.63,5.5,7.52,5.5h8.26c3.9,0,7.12-2.37,7.51-5.5l3.09-25.06h4.13a4.22,4.22,0,0,0,2.8-1A2.69,2.69,0,0,0,632.24,92Z" transform="translate(-23.33 -23.91)"/></g></g></g><g id="man-10"><g id="Group_2-10" data-name="Group 2-10"><g id="Group_1-10" data-name="Group 1-10"><circle id="Ellipse_1-10" data-name="Ellipse 1-10" class="cls-1" cx="656.76" cy="15.09" r="15.09"/></g></g><g id="Group_4-10" data-name="Group 4-10"><g id="Group_3-10" data-name="Group 3-10"><path id="Path_1-10" data-name="Path 1-10" class="cls-1" d="M702.7,92l-3.43-27.8c-.39-3.14-3.61-5.51-7.5-5.51H668.42c-3.9,0-7.13,2.37-7.51,5.5L657.47,92a2.72,2.72,0,0,0,1,2.36,4.2,4.2,0,0,0,2.79,1h4.13l3.09,25.06c.39,3.13,3.63,5.5,7.52,5.5h8.26c3.89,0,7.12-2.37,7.51-5.5l3.09-25.06H699a4.22,4.22,0,0,0,2.8-1A2.69,2.69,0,0,0,702.7,92Z" transform="translate(-23.33 -23.91)"/></g></g></g></svg>