<svg id="Layer_1" data-name="Layer 1" xmlns="http://www.w3.org/2000/svg" viewBox="0 0 92.51 2348.55"><defs><style>.cls-1{fill:#93f;}.cls-2{stroke:#000;stroke-miterlimit:10;stroke-width:1.16px;}</style></defs><g id="man"><g id="Group_2" data-name="Group 2"><g id="Group_1" data-name="Group 1"><circle id="Ellipse_1" data-name="Ellipse 1" class="cls-1" cx="46.26" cy="30.46" r="30.46"/></g></g><g id="Group_4" data-name="Group 4"><g id="Group_3" data-name="Group 3"><path id="Path_1" data-name="Path 1" class="cls-1" d="M136.19,181.24l-6.93-56.11C128.49,118.79,122,114,114.12,114H67c-7.86,0-14.38,4.78-15.16,11.11L44.9,181.24A5.49,5.49,0,0,0,46.84,186a8.48,8.48,0,0,0,5.63,2H60.8L67,238.6c.78,6.32,7.31,11.1,15.17,11.1H98.89c7.86,0,14.38-4.78,15.15-11.1L120.29,188h8.33a8.53,8.53,0,0,0,5.65-2A5.41,5.41,0,0,0,136.19,181.24Z" transform="translate(-44.3 -43.79)"/></g></g></g><g id="man-2"><g id="Group_2-2" data-name="Group 2-2"><g id="Group_1-2" data-name="Group 1-2"><circle id="Ellipse_1-2" data-name="Ellipse 1-2" class="cls-1" cx="46.26" cy="268.47" r="30.46"/></g></g><g id="Group_4-2" data-name="Group 4-2"><g id="Group_3-2" data-name="Group 3-2"><path id="Path_1-2" data-name="Path 1-2" class="cls-1" d="M136.19,419.25l-6.93-56.12C128.49,356.79,122,352,114.12,352H67c-7.86,0-14.38,4.77-15.16,11.1L44.9,419.25A5.49,5.49,0,0,0,46.84,424a8.52,8.52,0,0,0,5.63,2H60.8L67,476.61c.78,6.32,7.31,11.1,15.17,11.1H98.89c7.86,0,14.38-4.78,15.15-11.1L120.29,426h8.33a8.57,8.57,0,0,0,5.65-2A5.41,5.41,0,0,0,136.19,419.25Z" transform="translate(-44.3 -43.79)"/></g></g></g><g id="man-3"><g id="Group_2-3" data-name="Group 2-3"><g id="Group_1-3" data-name="Group 1-3"><circle id="Ellipse_1-3" data-name="Ellipse 1-3" class="cls-1" cx="46.26" cy="506.47" r="30.46"/></g></g><g id="Group_4-3" data-name="Group 4-3"><g id="Group_3-3" data-name="Group 3-3"><path id="Path_1-3" data-name="Path 1-3" class="cls-1" d="M136.19,657.25l-6.93-56.11C128.49,594.8,122,590,114.12,590H67c-7.86,0-14.38,4.77-15.16,11.1L44.9,657.25A5.5,5.5,0,0,0,46.84,662a8.52,8.52,0,0,0,5.63,2H60.8L67,714.62c.78,6.31,7.31,11.1,15.17,11.1H98.89c7.86,0,14.38-4.79,15.15-11.1L120.29,664h8.33a8.57,8.57,0,0,0,5.65-2A5.44,5.44,0,0,0,136.19,657.25Z" transform="translate(-44.3 -43.79)"/></g></g></g><g id="man-4"><g id="Group_2-4" data-name="Group 2-4"><g id="Group_1-4" data-name="Group 1-4"><circle id="Ellipse_1-4" data-name="Ellipse 1-4" class="cls-1" cx="46.26" cy="744.48" r="30.46"/></g></g><g id="Group_4-4" data-name="Group 4-4"><g id="Group_3-4" data-name="Group 3-4"><path id="Path_1-4" data-name="Path 1-4" class="cls-1" d="M136.19,895.26l-6.93-56.11C128.49,832.81,122,828,114.12,828H67c-7.86,0-14.38,4.78-15.16,11.11L44.9,895.26A5.49,5.49,0,0,0,46.84,900a8.48,8.48,0,0,0,5.63,2H60.8L67,952.62c.78,6.32,7.31,11.1,15.17,11.1H98.89c7.86,0,14.38-4.78,15.15-11.1l6.25-50.57h8.33a8.53,8.53,0,0,0,5.65-2A5.41,5.41,0,0,0,136.19,895.26Z" transform="translate(-44.3 -43.79)"/></g></g></g><g id="man-6"><g id="Group_2-6" data-name="Group 2-6"><g id="Group_1-6" data-name="Group 1-6"><circle id="Ellipse_1-6" data-name="Ellipse 1-6" class="cls-2" cx="46.26" cy="1220.49" r="30.46"/></g></g><g id="Group_4-6" data-name="Group 4-6"><g id="Group_3-6" data-name="Group 3-6"><path id="Path_1-6" data-name="Path 1-6" class="cls-2" d="M136.19,1371.27l-6.93-56.11c-.77-6.34-7.29-11.11-15.14-11.11H67c-7.86,0-14.38,4.77-15.16,11.1l-6.93,56.12a5.5,5.5,0,0,0,1.94,4.77,8.52,8.52,0,0,0,5.63,2H60.8L67,1428.64c.78,6.31,7.31,11.1,15.17,11.1H98.89c7.86,0,14.38-4.79,15.15-11.1l6.25-50.58h8.33a8.57,8.57,0,0,0,5.65-2A5.44,5.44,0,0,0,136.19,1371.27Z" transform="translate(-44.3 -43.79)"/></g></g></g><g id="man-7"><g id="Group_2-7" data-name="Group 2-7"><g id="Group_1-7" data-name="Group 1-7"><circle id="Ellipse_1-7" data-name="Ellipse 1-7" class="cls-2" cx="46.26" cy="1458.5" r="30.46"/></g></g><g id="Group_4-7" data-name="Group 4-7"><g id="Group_3-7" data-name="Group 3-7"><path id="Path_1-7" data-name="Path 1-7" class="cls-2" d="M136.19,1609.28l-6.93-56.11c-.77-6.34-7.29-11.12-15.14-11.12H67c-7.86,0-14.38,4.78-15.16,11.11l-6.93,56.12a5.49,5.49,0,0,0,1.94,4.76,8.48,8.48,0,0,0,5.63,2H60.8L67,1666.64c.78,6.32,7.31,11.1,15.17,11.1H98.89c7.86,0,14.38-4.78,15.15-11.1l6.25-50.57h8.33a8.53,8.53,0,0,0,5.65-2A5.41,5.41,0,0,0,136.19,1609.28Z" transform="translate(-44.3 -43.79)"/></g></g></g><g id="man-8"><g id="Group_2-8" data-name="Group 2-8"><g id="Group_1-8" data-name="Group 1-8"><circle id="Ellipse_1-8" data-name="Ellipse 1-8" class="cls-2" cx="46.26" cy="1696.51" r="30.46"/></g></g><g id="Group_4-8" data-name="Group 4-8"><g id="Group_3-8" data-name="Group 3-8"><path id="Path_1-8" data-name="Path 1-8" class="cls-2" d="M136.19,1847.29l-6.93-56.12c-.77-6.34-7.29-11.11-15.14-11.11H67c-7.86,0-14.38,4.77-15.16,11.1l-6.93,56.13a5.49,5.49,0,0,0,1.94,4.76,8.52,8.52,0,0,0,5.63,2H60.8L67,1904.65c.78,6.32,7.31,11.1,15.17,11.1H98.89c7.86,0,14.38-4.78,15.15-11.1l6.25-50.58h8.33a8.57,8.57,0,0,0,5.65-2A5.41,5.41,0,0,0,136.19,1847.29Z" transform="translate(-44.3 -43.79)"/></g></g></g><g id="man-9"><g id="Group_2-9" data-name="Group 2-9"><g id="Group_1-9" data-name="Group 1-9"><circle id="Ellipse_1-9" data-name="Ellipse 1-9" class="cls-2" cx="46.26" cy="1934.51" r="30.46"/></g></g><g id="Group_4-9" data-name="Group 4-9"><g id="Group_3-9" data-name="Group 3-9"><path id="Path_1-9" data-name="Path 1-9" class="cls-2" d="M136.19,2085.29l-6.93-56.11c-.77-6.34-7.29-11.11-15.14-11.11H67c-7.86,0-14.38,4.77-15.16,11.1l-6.93,56.12a5.5,5.5,0,0,0,1.94,4.77,8.52,8.52,0,0,0,5.63,2H60.8L67,2142.66c.78,6.31,7.31,11.1,15.17,11.1H98.89c7.86,0,14.38-4.79,15.15-11.1l6.25-50.58h8.33a8.57,8.57,0,0,0,5.65-2A5.44,5.44,0,0,0,136.19,2085.29Z" transform="translate(-44.3 -43.79)"/></g></g></g><g id="man-10"><g id="Group_2-10" data-name="Group 2-10"><g id="Group_1-10" data-name="Group 1-10"><circle id="Ellipse_1-10" data-name="Ellipse 1-10" class="cls-2" cx="46.26" cy="2172.52" r="30.46"/></g></g><g id="Group_4-10" data-name="Group 4-10"><g id="Group_3-10" data-name="Group 3-10"><path id="Path_1-10" data-name="Path 1-10" class="cls-2" d="M136.19,2323.3l-6.93-56.11c-.77-6.34-7.29-11.12-15.14-11.12H67c-7.86,0-14.38,4.78-15.16,11.11L44.9,2323.3a5.49,5.49,0,0,0,1.94,4.76,8.53,8.53,0,0,0,5.63,2H60.8L67,2380.66c.78,6.32,7.31,11.1,15.17,11.1H98.89c7.86,0,14.38-4.78,15.15-11.1l6.25-50.57h8.33a8.53,8.53,0,0,0,5.65-2A5.41,5.41,0,0,0,136.19,2323.3Z" transform="translate(-44.3 -43.79)"/></g></g></g><g id="Group_2-5" data-name="Group 2-5"><g id="Group_1-5" data-name="Group 1-5"><circle id="Ellipse_1-5" data-name="Ellipse 1-5" class="cls-1" cx="46.26" cy="982.49" r="30.46"/></g></g><g id="Group_4-5" data-name="Group 4-5"><g id="Group_3-5" data-name="Group 3-5"><path id="Path_1-5" data-name="Path 1-5" class="cls-2" d="M136.19,1133.27l-6.93-56.12c-.77-6.34-7.29-11.11-15.14-11.11H67c-7.86,0-14.38,4.77-15.16,11.1l-6.93,56.13a5.49,5.49,0,0,0,1.94,4.76,8.52,8.52,0,0,0,5.63,2H60.8L67,1190.63c.78,6.32,7.31,11.1,15.17,11.1H98.89c7.86,0,14.38-4.78,15.15-11.1l6.25-50.58h8.33a8.57,8.57,0,0,0,5.65-2A5.41,5.41,0,0,0,136.19,1133.27Z" transform="translate(-44.3 -43.79)"/></g></g><path class="cls-2" d="M64.17,1041.49a30.45,30.45,0,0,0,52.77,0Z" transform="translate(-44.3 -43.79)"/></svg>